<svg width="50" height="38" viewBox="0 0 50 38" fill="none" xmlns="http://www.w3.org/2000/svg">
<path d="M21.3758 11.847L25.0348 2L28.6591 11.847C25.8433 14.0252 28.5197 17.2553 30.2273 16.2483L32.1788 21.6939C30.2273 22.5891 30.5293 24.5535 30.9242 25.4238C31.3773 25.946 32.5203 26.8561 33.4682 26.319C35.5591 25.1553 35.1061 23.2978 34.6182 22.5145L48 12.1454L37.9288 36.2779C27.5858 29.7729 16.404 33.5675 12.1061 36.2779L2 12.1081L15.4515 22.5145C14.3364 24.0662 15.2192 25.4487 15.8 25.946C16.4389 26.2942 17.9118 26.7368 18.6924 25.7222C20.2536 23.5738 18.6924 22.1415 17.7167 21.6939L19.8424 16.2483C20.4581 16.5467 21.8288 16.7257 22.3864 15.0547C22.9439 13.3837 21.9449 12.22 21.3758 11.847Z" fill="black" stroke="black"/>
</svg>
