<svg width="200" height="60" viewBox="0 0 200 60" fill="none" xmlns="http://www.w3.org/2000/svg">
<path d="M15.3734 52C20.3938 49.5323 34.1031 45.9546 48.7774 51.3857C42.8993 46.9184 27.9891 40.787 15.3734 52Z" fill="black"/>
<path d="M27.2727 14.6243L32.0455 2L36.7727 14.6243C33.1 17.417 36.5909 21.5581 38.8182 20.267L41.3636 27.2486C38.8182 28.3963 39.2121 30.9148 39.7273 32.0306C40.3182 32.7 41.8091 33.8668 43.0455 33.1782C45.7727 31.6863 45.1818 29.3049 44.5455 28.3007L62 15.0069L48.8636 45.946C35.3727 37.6063 20.7879 42.4711 15.1818 45.946L2 14.9591L19.5455 28.3007C18.0909 30.2899 19.2424 32.0624 20 32.7C20.8333 33.1464 22.7545 33.7138 23.7727 32.4131C25.8091 29.6587 23.7727 27.8225 22.5 27.2486L25.2727 20.267C26.0758 20.6496 27.8636 20.8791 28.5909 18.7368C29.3182 16.5945 28.0152 15.1025 27.2727 14.6243Z" fill="black" stroke="black"/>
<path d="M76.696 49V17.704H83.752V30.52H83.944L93.256 17.704H101.032L91.576 30.184L102.76 49H95.032L87.4 35.8L83.752 40.6V49H76.696ZM105.604 49V25.192H112.66V49H105.604ZM109.108 21.688C107.924 21.688 106.948 21.352 106.18 20.68C105.412 19.976 105.028 19.08 105.028 17.992C105.028 16.904 105.412 16.024 106.18 15.352C106.948 14.68 107.924 14.344 109.108 14.344C110.324 14.344 111.3 14.68 112.036 15.352C112.804 16.024 113.188 16.904 113.188 17.992C113.188 19.08 112.804 19.976 112.036 20.68C111.3 21.352 110.324 21.688 109.108 21.688ZM118.87 49V25.192H124.63L125.11 28.216H125.302C126.326 27.256 127.446 26.424 128.662 25.72C129.878 24.984 131.302 24.616 132.934 24.616C135.526 24.616 137.398 25.464 138.55 27.16C139.734 28.856 140.326 31.208 140.326 34.216V49H133.27V35.128C133.27 33.4 133.03 32.216 132.55 31.576C132.102 30.936 131.366 30.616 130.342 30.616C129.446 30.616 128.678 30.824 128.038 31.24C127.398 31.624 126.694 32.184 125.926 32.92V49H118.87ZM154.835 59.128C153.427 59.128 152.115 59 150.899 58.744C149.715 58.52 148.659 58.168 147.731 57.688C146.835 57.208 146.131 56.584 145.619 55.816C145.107 55.048 144.851 54.136 144.851 53.08C144.851 51.16 145.987 49.56 148.259 48.28V48.088C147.619 47.672 147.091 47.144 146.675 46.504C146.259 45.864 146.051 45.048 146.051 44.056C146.051 43.192 146.307 42.376 146.819 41.608C147.331 40.808 147.971 40.136 148.739 39.592V39.4C147.907 38.824 147.155 38.008 146.483 36.952C145.843 35.864 145.523 34.616 145.523 33.208C145.523 31.768 145.795 30.52 146.339 29.464C146.883 28.376 147.603 27.48 148.499 26.776C149.427 26.04 150.483 25.496 151.667 25.144C152.851 24.792 154.083 24.616 155.363 24.616C156.771 24.616 158.003 24.808 159.059 25.192H167.747V30.328H163.955C164.179 30.68 164.355 31.128 164.483 31.672C164.643 32.216 164.723 32.808 164.723 33.448C164.723 34.824 164.483 36.024 164.003 37.048C163.523 38.04 162.851 38.872 161.987 39.544C161.155 40.184 160.163 40.664 159.011 40.984C157.891 41.304 156.675 41.464 155.363 41.464C154.435 41.464 153.475 41.304 152.483 40.984C152.163 41.24 151.939 41.496 151.811 41.752C151.683 42.008 151.619 42.344 151.619 42.76C151.619 43.368 151.875 43.816 152.387 44.104C152.931 44.392 153.875 44.536 155.219 44.536H159.059C162.003 44.536 164.243 45.016 165.779 45.976C167.347 46.904 168.131 48.44 168.131 50.584C168.131 51.832 167.811 52.968 167.171 53.992C166.563 55.048 165.683 55.944 164.531 56.68C163.379 57.448 161.987 58.04 160.355 58.456C158.723 58.904 156.883 59.128 154.835 59.128ZM155.363 37.192C156.291 37.192 157.059 36.872 157.667 36.232C158.307 35.56 158.627 34.552 158.627 33.208C158.627 31.96 158.307 31.016 157.667 30.376C157.059 29.704 156.291 29.368 155.363 29.368C154.435 29.368 153.651 29.688 153.011 30.328C152.403 30.968 152.099 31.928 152.099 33.208C152.099 34.552 152.403 35.56 153.011 36.232C153.651 36.872 154.435 37.192 155.363 37.192ZM155.939 54.712C157.539 54.712 158.851 54.424 159.875 53.848C160.899 53.304 161.411 52.616 161.411 51.784C161.411 51.048 161.091 50.552 160.451 50.296C159.843 50.04 158.947 49.912 157.763 49.912H155.315C154.483 49.912 153.811 49.88 153.299 49.816C152.787 49.784 152.339 49.72 151.955 49.624C151.091 50.392 150.659 51.176 150.659 51.976C150.659 52.872 151.139 53.544 152.099 53.992C153.059 54.472 154.339 54.712 155.939 54.712ZM185.669 49.576C184.453 49.576 183.429 49.16 182.597 48.328C181.797 47.464 181.397 46.408 181.397 45.16C181.397 43.88 181.797 42.824 182.597 41.992C183.429 41.128 184.453 40.696 185.669 40.696C186.885 40.696 187.893 41.128 188.693 41.992C189.525 42.824 189.941 43.88 189.941 45.16C189.941 46.408 189.525 47.464 188.693 48.328C187.893 49.16 186.885 49.576 185.669 49.576Z" fill="black"/>
<rect x="77" y="52" width="64" height="2" fill="#090909"/>
</svg>
