<svg width="64" height="52" viewBox="0 0 64 52" fill="none" xmlns="http://www.w3.org/2000/svg">
<path d="M15.3734 52C20.3938 49.5323 34.1031 45.9546 48.7774 51.3857C42.8993 46.9184 27.9891 40.787 15.3734 52Z" fill="black"/>
<path d="M27.2727 14.6243L32.0455 2L36.7727 14.6243C33.1 17.417 36.5909 21.5581 38.8182 20.267L41.3636 27.2486C38.8182 28.3963 39.2121 30.9148 39.7273 32.0306C40.3182 32.7 41.8091 33.8668 43.0455 33.1782C45.7727 31.6863 45.1818 29.3049 44.5455 28.3007L62 15.0069L48.8636 45.946C35.3727 37.6063 20.7879 42.4711 15.1818 45.946L2 14.9591L19.5455 28.3007C18.0909 30.2899 19.2424 32.0624 20 32.7C20.8333 33.1464 22.7545 33.7138 23.7727 32.4131C25.8091 29.6587 23.7727 27.8225 22.5 27.2486L25.2727 20.267C26.0758 20.6496 27.8636 20.8791 28.5909 18.7368C29.3182 16.5945 28.0152 15.1025 27.2727 14.6243Z" fill="black" stroke="black"/>
</svg>
