<svg width="79" height="70" viewBox="0 0 79 70" fill="none" xmlns="http://www.w3.org/2000/svg">
<rect width="79" height="70" fill="#FCD737"/>
<g clip-path="url(#clip0_28_168)">
<path d="M65.9997 9V61H12.9997V9H65.9997Z" fill="#4353FF"/>
<path d="M48.8943 30.788C48.8943 30.788 46.2046 39.056 46.0058 39.758C45.9263 39.069 43.9653 24.21 43.9653 24.21C39.3808 24.21 36.9428 27.408 35.6443 30.788C35.6443 30.788 32.3716 39.082 32.1066 39.771C32.0933 39.121 31.6031 30.866 31.6031 30.866C31.3248 26.719 27.4691 24.21 24.3421 24.21L28.1051 46.713C32.9016 46.7 35.4853 43.515 36.8368 40.122C36.8368 40.122 39.7121 32.803 39.8313 32.478C39.8578 32.79 41.8983 46.713 41.8983 46.713C46.7081 46.713 49.3051 43.736 50.6963 40.473L57.4406 24.21C52.6838 24.21 50.1796 27.395 48.8943 30.788Z" fill="white"/>
</g>
<defs>
<clipPath id="clip0_28_168">
<rect x="13" y="9" width="53" height="52" rx="26" fill="white"/>
</clipPath>
</defs>
</svg>
