<svg width="79" height="70" viewBox="0 0 79 70" fill="none" xmlns="http://www.w3.org/2000/svg">
<rect width="79" height="70" fill="#FCD737"/>
<path fill-rule="evenodd" clip-rule="evenodd" d="M42.8245 54.326L34.2932 39.1066L42.337 24.8959C42.4892 24.6438 42.3979 24.4756 42.1542 24.4756H37.2486C36.9477 24.4756 36.8549 24.6122 36.7058 24.8316L36.7002 24.8399C36.1958 25.8365 35.6847 26.8371 35.1722 27.8403C33.7966 30.5331 32.4121 33.2436 31.1245 35.9392H31.0636C29.7192 33.1773 28.309 30.461 26.8935 27.7342C26.3841 26.7529 25.8739 25.7704 25.366 24.7838C25.2745 24.5316 25.1222 24.4756 24.8175 24.4756H19.5769C19.3637 24.4756 19.1809 24.6717 19.3637 24.8959L27.4379 39.583L19.0894 54.3542C18.9372 54.5223 18.9675 54.7466 19.2722 54.7466H24.33C24.5738 54.7466 24.726 54.6624 24.8785 54.4382C26.8285 50.7385 28.8394 46.6463 30.6676 42.8904H30.7285C32.7698 46.8705 34.7502 50.7104 36.7002 54.4102C36.8526 54.6905 37.0049 54.7745 37.3401 54.7745H42.6417C42.8854 54.7745 42.9767 54.5503 42.8245 54.326ZM44.683 43.6473C44.683 37.1164 49.2533 32.0153 56.7484 32.0153C57.3884 32.0153 57.7234 32.0153 58.3328 32.0714V24.7838C58.3328 24.6156 58.4852 24.5035 58.6375 24.5035H63.5431C63.7868 24.5035 63.8478 24.5877 63.8478 24.7278V50.3461C63.8478 51.1028 63.8478 52.0558 64 53.0929C64 53.2891 64 53.3172 63.8172 53.4012C61.2578 54.5223 58.5766 55.0269 56.0172 55.0269C49.4056 55.0269 44.683 51.271 44.683 43.6473ZM58.3328 36.4718C57.8759 36.2755 57.2969 36.1915 56.5656 36.1915C52.7267 36.1915 50.1674 38.9103 50.1674 43.423C50.1674 48.5802 52.7877 50.6543 56.2 50.6543C56.9312 50.6543 57.7234 50.5703 58.3024 50.3461V36.4718H58.3328Z" fill="#090909"/>
</svg>
