<svg width="79" height="70" viewBox="0 0 79 70" fill="none" xmlns="http://www.w3.org/2000/svg">
<rect width="79" height="70" fill="#FCD737"/>
<g filter="url(#filter0_iiiii_83_9)">
<g clip-path="url(#clip0_83_9)">
<path d="M31.5023 62C37.2971 62 42.0002 57.968 42.0002 53V44H31.5023C25.7074 44 21.0044 48.032 21.0044 53C21.0044 57.968 25.7074 62 31.5023 62Z" fill="#0ACF83"/>
<path d="M21.0044 35C21.0044 30.032 25.7074 26 31.5023 26H42.0002V44H31.5023C25.7074 44 21.0044 39.968 21.0044 35Z" fill="#A259FF"/>
<path d="M21.0052 17C21.0052 12.032 25.7082 8 31.5031 8H42.001V26H31.5031C25.7082 26 21.0052 21.968 21.0052 17Z" fill="#F24E1E"/>
<path d="M42 8H52.4979C58.2927 8 62.9958 12.032 62.9958 17C62.9958 21.968 58.2927 26 52.4979 26H42V8Z" fill="#FF7262"/>
<path d="M62.9958 35C62.9958 39.968 58.2927 44 52.4979 44C46.7031 44 42 39.968 42 35C42 30.032 46.7031 26 52.4979 26C58.2927 26 62.9958 30.032 62.9958 35Z" fill="#1ABCFE"/>
</g>
</g>
<defs>
<filter id="filter0_iiiii_83_9" x="21" y="-22" width="42" height="104" filterUnits="userSpaceOnUse" color-interpolation-filters="sRGB">
<feFlood flood-opacity="0" result="BackgroundImageFix"/>
<feBlend mode="normal" in="SourceGraphic" in2="BackgroundImageFix" result="shape"/>
<feColorMatrix in="SourceAlpha" type="matrix" values="0 0 0 0 0 0 0 0 0 0 0 0 0 0 0 0 0 0 127 0" result="hardAlpha"/>
<feOffset dy="20"/>
<feGaussianBlur stdDeviation="20"/>
<feComposite in2="hardAlpha" operator="arithmetic" k2="-1" k3="1"/>
<feColorMatrix type="matrix" values="0 0 0 0 1 0 0 0 0 1 0 0 0 0 1 0 0 0 0.5 0"/>
<feBlend mode="overlay" in2="shape" result="effect1_innerShadow_83_9"/>
<feColorMatrix in="SourceAlpha" type="matrix" values="0 0 0 0 0 0 0 0 0 0 0 0 0 0 0 0 0 0 127 0" result="hardAlpha"/>
<feOffset dy="-30"/>
<feGaussianBlur stdDeviation="30"/>
<feComposite in2="hardAlpha" operator="arithmetic" k2="-1" k3="1"/>
<feColorMatrix type="matrix" values="0 0 0 0 0 0 0 0 0 0 0 0 0 0 0 0 0 0 0.5 0"/>
<feBlend mode="overlay" in2="effect1_innerShadow_83_9" result="effect2_innerShadow_83_9"/>
<feColorMatrix in="SourceAlpha" type="matrix" values="0 0 0 0 0 0 0 0 0 0 0 0 0 0 0 0 0 0 127 0" result="hardAlpha"/>
<feOffset dy="5"/>
<feGaussianBlur stdDeviation="7.5"/>
<feComposite in2="hardAlpha" operator="arithmetic" k2="-1" k3="1"/>
<feColorMatrix type="matrix" values="0 0 0 0 1 0 0 0 0 1 0 0 0 0 1 0 0 0 0.7 0"/>
<feBlend mode="overlay" in2="effect2_innerShadow_83_9" result="effect3_innerShadow_83_9"/>
<feColorMatrix in="SourceAlpha" type="matrix" values="0 0 0 0 0 0 0 0 0 0 0 0 0 0 0 0 0 0 127 0" result="hardAlpha"/>
<feOffset dy="-40"/>
<feGaussianBlur stdDeviation="10"/>
<feComposite in2="hardAlpha" operator="arithmetic" k2="-1" k3="1"/>
<feColorMatrix type="matrix" values="0 0 0 0 0 0 0 0 0 0 0 0 0 0 0 0 0 0 0.15 0"/>
<feBlend mode="overlay" in2="effect3_innerShadow_83_9" result="effect4_innerShadow_83_9"/>
<feColorMatrix in="SourceAlpha" type="matrix" values="0 0 0 0 0 0 0 0 0 0 0 0 0 0 0 0 0 0 127 0" result="hardAlpha"/>
<feOffset dy="20"/>
<feGaussianBlur stdDeviation="10"/>
<feComposite in2="hardAlpha" operator="arithmetic" k2="-1" k3="1"/>
<feColorMatrix type="matrix" values="0 0 0 0 1 0 0 0 0 1 0 0 0 0 1 0 0 0 0.25 0"/>
<feBlend mode="overlay" in2="effect4_innerShadow_83_9" result="effect5_innerShadow_83_9"/>
</filter>
<clipPath id="clip0_83_9">
<rect width="42" height="54" fill="white" transform="translate(21 8)"/>
</clipPath>
</defs>
</svg>
